<?xml version="1.0" encoding="utf-8"?>
<!-- Generator: Adobe Illustrator 16.0.0, SVG Export Plug-In . SVG Version: 6.00 Build 0)  -->
<!DOCTYPE svg PUBLIC "-//W3C//DTD SVG 1.1//EN" "http://www.w3.org/Graphics/SVG/1.1/DTD/svg11.dtd">
<svg version="1.1" id="Layer_1" xmlns="http://www.w3.org/2000/svg" xmlns:xlink="http://www.w3.org/1999/xlink" x="0px" y="0px"
	 width="48px" height="48px" viewBox="0 0 48 48" enable-background="new 0 0 48 48" xml:space="preserve">
<g>
	<path fill="#414042" d="M26.62,6.647h-5.122c-0.275,0-0.499,0.224-0.499,0.5s0.223,0.5,0.499,0.5h5.122
		c0.275,0,0.499-0.224,0.499-0.5S26.896,6.647,26.62,6.647z"/>
	<path fill="#414042" d="M38.149,17.966H9.966c-0.276,0-0.499,0.224-0.499,0.5v26.739c0,1.041,0.844,1.888,1.881,1.888h25.417
		c1.037,0,1.881-0.847,1.881-1.888V18.466C38.647,18.189,38.425,17.966,38.149,17.966z M37.651,45.205
		c0,0.489-0.397,0.888-0.885,0.888H11.349c-0.488,0-0.885-0.398-0.885-0.888V18.966h5.638v20.049c0,0.276,0.223,0.5,0.498,0.5
		s0.499-0.224,0.499-0.5V18.966h6.375v20.049c0,0.276,0.223,0.5,0.499,0.5s0.499-0.224,0.499-0.5V18.966h6.836v20.049
		c0,0.276,0.224,0.5,0.499,0.5s0.498-0.224,0.498-0.5V18.966h5.348V45.205z"/>
	<path fill="#414042" d="M40.219,7.761h-7.915V2.897c0-0.979-0.794-1.775-1.77-1.775H17.872c-0.976,0-1.77,0.796-1.77,1.775v4.864
		H7.897c-0.976,0-1.77,0.796-1.77,1.775v2.445c0,0.979,0.793,1.776,1.77,1.776h32.322c0.976,0,1.77-0.797,1.77-1.776V9.537
		C41.988,8.558,41.194,7.761,40.219,7.761z M40.991,11.982c0,0.428-0.347,0.776-0.772,0.776H7.897c-0.426,0-0.773-0.348-0.773-0.776
		V9.537c0-0.428,0.347-0.775,0.773-0.775H16.6c0.275,0,0.499-0.224,0.499-0.5V2.897c0-0.427,0.347-0.775,0.773-0.775h12.663
		c0.427,0,0.772,0.348,0.772,0.775v5.364c0,0.276,0.224,0.5,0.499,0.5h8.413c0.426,0,0.772,0.348,0.772,0.775V11.982z"/>
</g>
</svg>
